<svg xmlns="http://www.w3.org/2000/svg" viewBox="0 0 1600 900" role="img" aria-labelledby="title desc">
<title id="title">Validation-First Microsoft Fabric Lakehouse Ingestion</title><desc id="desc">Trusted office CSV files are validated before approved and quarantine paths diverge</desc>
<defs><marker id="arrow" viewBox="0 0 10 10" refX="9" refY="5" markerWidth="8" markerHeight="8" orient="auto"><path d="M0 0L10 5L0 10Z" fill="#315866"/></marker></defs>
<rect width="1600" height="900" fill="#ffffff"/><rect x="45" y="42" width="1510" height="816" rx="24" fill="#f7fafb" stroke="#b9cdd5" stroke-width="2"/>
<text x="90" y="105" font-family="Arial, Helvetica, sans-serif" font-size="40" font-weight="700" fill="#142a34">Validation-First Microsoft Fabric Lakehouse Ingestion</text>
<text x="90" y="145" font-family="Arial, Helvetica, sans-serif" font-size="23" fill="#536d77">Trusted office CSV files are validated before approved and quarantine paths diverge</text>
<g font-family="Arial, Helvetica, sans-serif"><g><rect x="80" y="225" width="219" height="184" rx="14" fill="#fff" stroke="#5c8797" stroke-width="2"/><circle cx="107" cy="252" r="16" fill="#087ea4"/><text x="107" y="259" text-anchor="middle" font-size="18" font-weight="700" fill="#fff">1</text><text x="189.5" y="293" text-anchor="middle" font-size="18" font-weight="700" fill="#18313c">Office CSV Files</text><text x="189.5" y="320" text-anchor="middle" font-size="18" font-weight="500" fill="#18313c">office_*.csv</text><line x1="299" y1="317" x2="312" y2="317" stroke="#315866" stroke-width="4" marker-end="url(#arrow)"/></g><g><rect x="317" y="225" width="219" height="184" rx="14" fill="#eef7fa" stroke="#5c8797" stroke-width="2"/><circle cx="344" cy="252" r="16" fill="#087ea4"/><text x="344" y="259" text-anchor="middle" font-size="18" font-weight="700" fill="#fff">2</text><text x="426.5" y="293" text-anchor="middle" font-size="18" font-weight="700" fill="#18313c">Fabric Data Factory</text><text x="426.5" y="320" text-anchor="middle" font-size="18" font-weight="500" fill="#18313c">Discovery and routing</text><line x1="536" y1="317" x2="549" y2="317" stroke="#315866" stroke-width="4" marker-end="url(#arrow)"/></g><g><rect x="554" y="225" width="219" height="184" rx="14" fill="#fff" stroke="#5c8797" stroke-width="2"/><circle cx="581" cy="252" r="16" fill="#087ea4"/><text x="581" y="259" text-anchor="middle" font-size="18" font-weight="700" fill="#fff">3</text><text x="663.5" y="293" text-anchor="middle" font-size="18" font-weight="700" fill="#18313c">Lakehouse Landing</text><text x="663.5" y="320" text-anchor="middle" font-size="18" font-weight="500" fill="#18313c">Controlled arrival</text><line x1="773" y1="317" x2="786" y2="317" stroke="#315866" stroke-width="4" marker-end="url(#arrow)"/></g><g><rect x="791" y="225" width="219" height="184" rx="14" fill="#eef7fa" stroke="#5c8797" stroke-width="2"/><circle cx="818" cy="252" r="16" fill="#087ea4"/><text x="818" y="259" text-anchor="middle" font-size="18" font-weight="700" fill="#fff">4</text><text x="900.5" y="293" text-anchor="middle" font-size="18" font-weight="700" fill="#18313c">Fabric Notebook</text><text x="900.5" y="320" text-anchor="middle" font-size="18" font-weight="500" fill="#18313c">PySpark validation</text></g><path d="M 1010 317 C 1045 317, 1045 287, 1072 287" fill="none" stroke="#315866" stroke-width="4" marker-end="url(#arrow)"/><text x="1068" y="195" text-anchor="end" font-size="18" font-weight="700" fill="#315866">Approved</text><g><rect x="1080" y="205" width="205" height="164" rx="14" fill="#edf8f4" stroke="#4f8b78" stroke-width="2"/><text x="1182.5" y="263" text-anchor="middle" font-size="19" font-weight="700" fill="#18313c">Valid Records</text><text x="1182.5" y="291" text-anchor="middle" font-size="19" font-weight="500" fill="#18313c">approved columns</text><line x1="1285" y1="287" x2="1315" y2="287" stroke="#315866" stroke-width="4" marker-end="url(#arrow)"/></g><g><rect x="1325" y="205" width="205" height="164" rx="14" fill="#edf8f4" stroke="#4f8b78" stroke-width="2"/><text x="1427.5" y="263" text-anchor="middle" font-size="19" font-weight="700" fill="#18313c">Curated Lakehouse</text><text x="1427.5" y="291" text-anchor="middle" font-size="19" font-weight="500" fill="#18313c">property_id upsert</text></g><path d="M 1010 317 C 1045 317, 1045 522, 1072 522" fill="none" stroke="#315866" stroke-width="4" marker-end="url(#arrow)"/><text x="1068" y="430" text-anchor="end" font-size="18" font-weight="700" fill="#315866">Invalid</text><g><rect x="1080" y="440" width="205" height="164" rx="14" fill="#fff4f1" stroke="#9b665c" stroke-width="2"/><text x="1182.5" y="498" text-anchor="middle" font-size="19" font-weight="700" fill="#18313c">Invalid Files</text><text x="1182.5" y="526" text-anchor="middle" font-size="19" font-weight="500" fill="#18313c">schema or contract</text><line x1="1285" y1="522" x2="1315" y2="522" stroke="#315866" stroke-width="4" marker-end="url(#arrow)"/></g><g><rect x="1325" y="440" width="205" height="164" rx="14" fill="#fff4f1" stroke="#9b665c" stroke-width="2"/><text x="1427.5" y="498" text-anchor="middle" font-size="19" font-weight="700" fill="#18313c">Quarantine</text><text x="1427.5" y="526" text-anchor="middle" font-size="19" font-weight="500" fill="#18313c">retained for review</text></g><text x="80" y="687" font-size="24" font-weight="700" fill="#294854">Operational controls</text><g><rect x="80" y="720" width="346.5" height="82" rx="12" fill="#fff" stroke="#8da7b1" stroke-width="2" stroke-dasharray="8 6"/><text x="253.25" y="769" text-anchor="middle" font-size="19" font-weight="700" fill="#18313c">Pipeline notification</text></g><g><rect x="444.5" y="720" width="346.5" height="82" rx="12" fill="#fff" stroke="#8da7b1" stroke-width="2" stroke-dasharray="8 6"/><text x="617.75" y="769" text-anchor="middle" font-size="19" font-weight="700" fill="#18313c">Audit metadata</text></g><g><rect x="809" y="720" width="346.5" height="82" rx="12" fill="#fff" stroke="#8da7b1" stroke-width="2" stroke-dasharray="8 6"/><text x="982.25" y="769" text-anchor="middle" font-size="19" font-weight="700" fill="#18313c">Archive-before-delete</text></g><g><rect x="1173.5" y="720" width="346.5" height="82" rx="12" fill="#fff" stroke="#8da7b1" stroke-width="2" stroke-dasharray="8 6"/><text x="1346.75" y="769" text-anchor="middle" font-size="19" font-weight="700" fill="#18313c">Rerun-safe processing</text></g></g></svg>