<svg xmlns="http://www.w3.org/2000/svg" viewBox="0 0 1600 900" role="img" aria-labelledby="title desc">
<title id="title">Movie Analytics Mapping Data Flow</title><desc id="desc">Ranking precedes aggregation and validation before release-year output routing</desc>
<defs><marker id="arrow" viewBox="0 0 10 10" refX="9" refY="5" markerWidth="8" markerHeight="8" orient="auto"><path d="M0 0L10 5L0 10Z" fill="#315866"/></marker></defs>
<rect width="1600" height="900" fill="#ffffff"/><rect x="45" y="42" width="1510" height="816" rx="24" fill="#f7fafb" stroke="#b9cdd5" stroke-width="2"/>
<text x="90" y="105" font-family="Arial, Helvetica, sans-serif" font-size="40" font-weight="700" fill="#142a34">Movie Analytics Mapping Data Flow</text>
<text x="90" y="145" font-family="Arial, Helvetica, sans-serif" font-size="23" fill="#536d77">Ranking precedes aggregation and validation before release-year output routing</text>
<g font-family="Arial, Helvetica, sans-serif"><g><rect x="80" y="225" width="140" height="184" rx="14" fill="#fff" stroke="#5c8797" stroke-width="2"/><circle cx="107" cy="252" r="16" fill="#087ea4"/><text x="107" y="259" text-anchor="middle" font-size="18" font-weight="700" fill="#fff">1</text><text x="150" y="293" text-anchor="middle" font-size="18" font-weight="700" fill="#18313c">Blob Storage</text><text x="150" y="320" text-anchor="middle" font-size="18" font-weight="500" fill="#18313c">Movie CSV</text><line x1="220" y1="317" x2="233" y2="317" stroke="#315866" stroke-width="4" marker-end="url(#arrow)"/></g><g><rect x="238" y="225" width="140" height="184" rx="14" fill="#eef7fa" stroke="#5c8797" stroke-width="2"/><circle cx="265" cy="252" r="16" fill="#087ea4"/><text x="265" y="259" text-anchor="middle" font-size="18" font-weight="700" fill="#fff">2</text><text x="308" y="293" text-anchor="middle" font-size="18" font-weight="700" fill="#18313c">Derived Column</text><text x="308" y="320" text-anchor="middle" font-size="18" font-weight="500" fill="#18313c">genre derivation</text><line x1="378" y1="317" x2="391" y2="317" stroke="#315866" stroke-width="4" marker-end="url(#arrow)"/></g><g><rect x="396" y="225" width="140" height="184" rx="14" fill="#fff" stroke="#5c8797" stroke-width="2"/><circle cx="423" cy="252" r="16" fill="#087ea4"/><text x="423" y="259" text-anchor="middle" font-size="18" font-weight="700" fill="#fff">3</text><text x="466" y="293" text-anchor="middle" font-size="18" font-weight="700" fill="#18313c">Window</text><text x="466" y="320" text-anchor="middle" font-size="18" font-weight="500" fill="#18313c">row ranking</text><line x1="536" y1="317" x2="549" y2="317" stroke="#315866" stroke-width="4" marker-end="url(#arrow)"/></g><g><rect x="554" y="225" width="140" height="184" rx="14" fill="#eef7fa" stroke="#5c8797" stroke-width="2"/><circle cx="581" cy="252" r="16" fill="#087ea4"/><text x="581" y="259" text-anchor="middle" font-size="18" font-weight="700" fill="#fff">4</text><text x="624" y="293" text-anchor="middle" font-size="18" font-weight="700" fill="#18313c">Aggregate</text><text x="624" y="320" text-anchor="middle" font-size="18" font-weight="500" fill="#18313c">grouped measures</text><line x1="694" y1="317" x2="707" y2="317" stroke="#315866" stroke-width="4" marker-end="url(#arrow)"/></g><g><rect x="712" y="225" width="140" height="184" rx="14" fill="#fff" stroke="#5c8797" stroke-width="2"/><circle cx="739" cy="252" r="16" fill="#087ea4"/><text x="739" y="259" text-anchor="middle" font-size="18" font-weight="700" fill="#fff">5</text><text x="782" y="293" text-anchor="middle" font-size="18" font-weight="700" fill="#18313c">Assert</text><text x="782" y="320" text-anchor="middle" font-size="18" font-weight="500" fill="#18313c">quality rules</text><line x1="852" y1="317" x2="865" y2="317" stroke="#315866" stroke-width="4" marker-end="url(#arrow)"/></g><g><rect x="870" y="225" width="140" height="184" rx="14" fill="#eef7fa" stroke="#5c8797" stroke-width="2"/><circle cx="897" cy="252" r="16" fill="#087ea4"/><text x="897" y="259" text-anchor="middle" font-size="18" font-weight="700" fill="#fff">6</text><text x="940" y="293" text-anchor="middle" font-size="18" font-weight="700" fill="#18313c">Conditional Split</text><text x="940" y="320" text-anchor="middle" font-size="18" font-weight="500" fill="#18313c">year routing</text></g><path d="M 1010 317 C 1045 317, 1045 287, 1072 287" fill="none" stroke="#315866" stroke-width="4" marker-end="url(#arrow)"/><text x="1068" y="195" text-anchor="end" font-size="18" font-weight="700" fill="#315866">Configured group</text><g><rect x="1080" y="205" width="205" height="164" rx="14" fill="#edf8f4" stroke="#4f8b78" stroke-width="2"/><text x="1182.5" y="263" text-anchor="middle" font-size="19" font-weight="700" fill="#18313c">SQL Route</text><text x="1182.5" y="291" text-anchor="middle" font-size="19" font-weight="500" fill="#18313c">approved output</text><line x1="1285" y1="287" x2="1315" y2="287" stroke="#315866" stroke-width="4" marker-end="url(#arrow)"/></g><g><rect x="1325" y="205" width="205" height="164" rx="14" fill="#edf8f4" stroke="#4f8b78" stroke-width="2"/><text x="1427.5" y="263" text-anchor="middle" font-size="19" font-weight="700" fill="#18313c">Azure SQL</text><text x="1427.5" y="291" text-anchor="middle" font-size="19" font-weight="500" fill="#18313c">analytical output</text></g><path d="M 1010 317 C 1045 317, 1045 522, 1072 522" fill="none" stroke="#315866" stroke-width="4" marker-end="url(#arrow)"/><text x="1068" y="430" text-anchor="end" font-size="18" font-weight="700" fill="#315866">Alternate group</text><g><rect x="1080" y="440" width="205" height="164" rx="14" fill="#edf8f4" stroke="#4f8b78" stroke-width="2"/><text x="1182.5" y="498" text-anchor="middle" font-size="19" font-weight="700" fill="#18313c">ADLS Route</text><text x="1182.5" y="526" text-anchor="middle" font-size="19" font-weight="500" fill="#18313c">approved output</text><line x1="1285" y1="522" x2="1315" y2="522" stroke="#315866" stroke-width="4" marker-end="url(#arrow)"/></g><g><rect x="1325" y="440" width="205" height="164" rx="14" fill="#edf8f4" stroke="#4f8b78" stroke-width="2"/><text x="1427.5" y="498" text-anchor="middle" font-size="19" font-weight="700" fill="#18313c">ADLS Gen2</text><text x="1427.5" y="526" text-anchor="middle" font-size="19" font-weight="500" fill="#18313c">file output</text></g><text x="80" y="687" font-size="24" font-weight="700" fill="#294854">Operational controls</text><g><rect x="80" y="720" width="346.5" height="82" rx="12" fill="#fff" stroke="#8da7b1" stroke-width="2" stroke-dasharray="8 6"/><text x="253.25" y="769" text-anchor="middle" font-size="19" font-weight="700" fill="#18313c">Assert failure behaviour</text></g><g><rect x="444.5" y="720" width="346.5" height="82" rx="12" fill="#fff" stroke="#8da7b1" stroke-width="2" stroke-dasharray="8 6"/><text x="617.75" y="769" text-anchor="middle" font-size="19" font-weight="700" fill="#18313c">Explicit output grain</text></g><g><rect x="809" y="720" width="346.5" height="82" rx="12" fill="#fff" stroke="#8da7b1" stroke-width="2" stroke-dasharray="8 6"/><text x="982.25" y="769" text-anchor="middle" font-size="19" font-weight="700" fill="#18313c">Sink failure propagation</text></g><g><rect x="1173.5" y="720" width="346.5" height="82" rx="12" fill="#fff" stroke="#8da7b1" stroke-width="2" stroke-dasharray="8 6"/><text x="1346.75" y="769" text-anchor="middle" font-size="19" font-weight="700" fill="#18313c">Archive after success</text></g></g></svg>