<svg xmlns="http://www.w3.org/2000/svg" viewBox="0 0 35 35">
  <path fill="#00add4" d="M34.559 28.093 18.538.7a.93.93 0 0 0-1.602 0L3.321 23.979c-.24.41.192.882.622.68.176-.082.379-.165.603-.249l-.005.01s.372-.145 1.001-.344a29.2 29.2 0 0 1 2.139-.585c1.923-.443 4.443-.805 6.715-.428 2.091.347 3.547.907 4.608 1.459.486.253.945-.382.552-.764-1.52-1.478-3.86-3.262-7.42-4.01-.155-.032-.233-.208-.153-.346l5.36-9.165a.457.457 0 0 1 .788 0l10.237 17.504a.677.677 0 0 1-.37.975c-.802.268-1.76.469-2.833.469-.683 0-1.369-.081-2.058-.241 0 0-1.983-.313-4.635-1.895-2.652-1.582-7.764-3.6-13.501-.333-2.445 1.571-4.073 3.719-4.931 5.068-.135.211.097.463.358.345 1.971-1.053 7.286-3.54 12.075-2.646 2.846.531 6.099 2.68 9.48 3.912 5.594 2.073 11.078-1.4 11.09-1.407.58-.383.92-.674.978-.725l.07-.061a2.425 2.425 0 0 0 .509-3.11Z"/>
</svg>
