<svg xmlns="http://www.w3.org/2000/svg" viewBox="0 0 24 24">
  <defs>
    <linearGradient id="fabric-a" x1="6.477" x2="6.477" y1="22.003" y2="14.73" gradientUnits="userSpaceOnUse">
      <stop offset=".056" stop-color="#2aac94"/><stop offset=".372" stop-color="#177e71"/><stop offset="1" stop-color="#085954"/>
    </linearGradient>
    <linearGradient id="fabric-b" x1="15.667" x2="8.644" y1="16.726" y2="9.087" gradientUnits="userSpaceOnUse">
      <stop offset=".042" stop-color="#abe88e"/><stop offset=".549" stop-color="#2aaa92"/><stop offset=".906" stop-color="#117865"/>
    </linearGradient>
    <linearGradient id="fabric-c" x1="3.507" x2="21.297" y1="7.61" y2="7.61" gradientUnits="userSpaceOnUse">
      <stop offset=".043" stop-color="#25ffd4"/><stop offset=".874" stop-color="#55ddb9"/>
    </linearGradient>
    <linearGradient id="fabric-d" x1="3.507" x2="19.532" y1="5.124" y2="12.565" gradientUnits="userSpaceOnUse">
      <stop stop-color="#6ad6f9"/><stop offset=".23" stop-color="#60e9d0"/><stop offset=".651" stop-color="#6de9bb"/><stop offset=".994" stop-color="#abe88e"/>
    </linearGradient>
    <linearGradient id="fabric-e" x1="6.784" x2="5.331" y1="19.988" y2="12.884" gradientUnits="userSpaceOnUse">
      <stop offset=".064" stop-color="#063d3b" stop-opacity="0"/><stop offset=".562" stop-color="#063d3b" stop-opacity=".599"/><stop offset="1" stop-color="#063d3b"/>
    </linearGradient>
  </defs>
  <path fill="url(#fabric-a)" fill-rule="evenodd" d="m2.82 15.802-.293 1.072c-.11.343-.262.847-.345 1.295a2.815 2.815 0 0 0 2.32 3.795c.396.057.844.054 1.346-.02l2.307-.318a1.46 1.46 0 0 0 1.21-1.064l1.588-5.832z" clip-rule="evenodd"/>
  <path fill="url(#fabric-b)" d="M5.07 16.078c-2.431.376-2.93 2.211-2.93 2.211l2.328-8.556 12.168-1.646-1.66 6.027a.85.85 0 0 1-.693.622l-.068.011-9.213 1.342z"/>
  <path fill="url(#fabric-c)" d="m6.45 10.619 13.47-1.99a.8.8 0 0 0 .662-.586l1.39-5.03a.797.797 0 0 0-.87-1.006L8.25 3.905a3.59 3.59 0 0 0-2.89 2.597L3.507 13.22c.372-1.36.6-2.178 2.943-2.602Z"/>
  <path fill="url(#fabric-d)" d="m6.45 10.619 13.47-1.99a.8.8 0 0 0 .662-.586l1.39-5.03a.797.797 0 0 0-.87-1.006L8.25 3.905a3.59 3.59 0 0 0-2.89 2.597L3.507 13.22c.372-1.36.6-2.178 2.943-2.602Z" opacity=".72"/>
  <path fill="url(#fabric-e)" fill-rule="evenodd" d="M5.038 16.086c-2.03.328-2.697 1.673-2.856 2.082a2.817 2.817 0 0 0 2.32 3.796c.396.057.844.054 1.346-.02l2.307-.318a1.46 1.46 0 0 0 1.21-1.064l1.448-5.317z" clip-rule="evenodd"/>
</svg>
