<svg xmlns="http://www.w3.org/2000/svg" viewBox="0 0 1600 900" role="img" aria-labelledby="title desc">
<title id="title">Metadata-Driven Multi-Source ADF Ingestion</title><desc id="desc">Reusable orchestration routes configured source types into organised ADLS Gen2 storage</desc>
<defs><marker id="arrow" viewBox="0 0 10 10" refX="9" refY="5" markerWidth="8" markerHeight="8" orient="auto"><path d="M0 0L10 5L0 10Z" fill="#315866"/></marker></defs>
<rect width="1600" height="900" fill="#ffffff"/><rect x="45" y="42" width="1510" height="816" rx="24" fill="#f7fafb" stroke="#b9cdd5" stroke-width="2"/>
<text x="90" y="105" font-family="Arial, Helvetica, sans-serif" font-size="40" font-weight="700" fill="#142a34">Metadata-Driven Multi-Source ADF Ingestion</text>
<text x="90" y="145" font-family="Arial, Helvetica, sans-serif" font-size="23" fill="#536d77">Reusable orchestration routes configured source types into organised ADLS Gen2 storage</text>
<g font-family="Arial, Helvetica, sans-serif"><g><rect x="80" y="235" width="220" height="210" rx="14" fill="#ffffff" stroke="#5c8797" stroke-width="2"/><circle cx="110" cy="265" r="17" fill="#087ea4"/><text x="110" y="273" text-anchor="middle" font-size="20" font-weight="700" fill="#fff">1</text><text x="190" y="313" text-anchor="middle" font-size="22" font-weight="700" fill="#18313c">SQL Sources</text><text x="190" y="343" text-anchor="middle" font-size="22" font-weight="500" fill="#18313c">Database input</text><line x1="300" y1="340" x2="319" y2="340" stroke="#315866" stroke-width="4" marker-end="url(#arrow)"/></g><g><rect x="324" y="235" width="220" height="210" rx="14" fill="#eef7fa" stroke="#5c8797" stroke-width="2"/><circle cx="354" cy="265" r="17" fill="#087ea4"/><text x="354" y="273" text-anchor="middle" font-size="20" font-weight="700" fill="#fff">2</text><text x="434" y="313" text-anchor="middle" font-size="22" font-weight="700" fill="#18313c">REST or HTTP</text><text x="434" y="343" text-anchor="middle" font-size="22" font-weight="500" fill="#18313c">Endpoint input</text><line x1="544" y1="340" x2="563" y2="340" stroke="#315866" stroke-width="4" marker-end="url(#arrow)"/></g><g><rect x="568" y="235" width="220" height="210" rx="14" fill="#ffffff" stroke="#5c8797" stroke-width="2"/><circle cx="598" cy="265" r="17" fill="#087ea4"/><text x="598" y="273" text-anchor="middle" font-size="20" font-weight="700" fill="#fff">3</text><text x="678" y="313" text-anchor="middle" font-size="22" font-weight="700" fill="#18313c">File Sources</text><text x="678" y="343" text-anchor="middle" font-size="22" font-weight="500" fill="#18313c">Configured files</text><line x1="788" y1="340" x2="807" y2="340" stroke="#315866" stroke-width="4" marker-end="url(#arrow)"/></g><g><rect x="812" y="235" width="220" height="210" rx="14" fill="#eef7fa" stroke="#5c8797" stroke-width="2"/><circle cx="842" cy="265" r="17" fill="#087ea4"/><text x="842" y="273" text-anchor="middle" font-size="20" font-weight="700" fill="#fff">4</text><text x="922" y="313" text-anchor="middle" font-size="22" font-weight="700" fill="#18313c">ADLS Metadata</text><text x="922" y="343" text-anchor="middle" font-size="22" font-weight="500" fill="#18313c">Source and target rules</text><line x1="1032" y1="340" x2="1051" y2="340" stroke="#315866" stroke-width="4" marker-end="url(#arrow)"/></g><g><rect x="1056" y="235" width="220" height="210" rx="14" fill="#ffffff" stroke="#5c8797" stroke-width="2"/><circle cx="1086" cy="265" r="17" fill="#087ea4"/><text x="1086" y="273" text-anchor="middle" font-size="20" font-weight="700" fill="#fff">5</text><text x="1166" y="313" text-anchor="middle" font-size="22" font-weight="700" fill="#18313c">Azure Data Factory</text><text x="1166" y="343" text-anchor="middle" font-size="22" font-weight="500" fill="#18313c">Lookup - ForEach - routing</text><line x1="1276" y1="340" x2="1295" y2="340" stroke="#315866" stroke-width="4" marker-end="url(#arrow)"/></g><g><rect x="1300" y="235" width="220" height="210" rx="14" fill="#eef7fa" stroke="#5c8797" stroke-width="2"/><circle cx="1330" cy="265" r="17" fill="#087ea4"/><text x="1330" y="273" text-anchor="middle" font-size="20" font-weight="700" fill="#fff">6</text><text x="1410" y="313" text-anchor="middle" font-size="22" font-weight="700" fill="#18313c">ADLS Gen2</text><text x="1410" y="343" text-anchor="middle" font-size="22" font-weight="500" fill="#18313c">Organised output</text></g><text x="80" y="548" font-size="25" font-weight="700" fill="#294854">Operational controls</text><g><rect x="80" y="585" width="346.5" height="105" rx="12" fill="#fff" stroke="#8da7b1" stroke-width="2" stroke-dasharray="8 6"/><text x="253.25" y="647" text-anchor="middle" font-size="20" font-weight="700" fill="#18313c">Watermark processing</text></g><g><rect x="444.5" y="585" width="346.5" height="105" rx="12" fill="#fff" stroke="#8da7b1" stroke-width="2" stroke-dasharray="8 6"/><text x="617.75" y="647" text-anchor="middle" font-size="20" font-weight="700" fill="#18313c">Execution logging</text></g><g><rect x="809" y="585" width="346.5" height="105" rx="12" fill="#fff" stroke="#8da7b1" stroke-width="2" stroke-dasharray="8 6"/><text x="982.25" y="647" text-anchor="middle" font-size="20" font-weight="700" fill="#18313c">Retry handling</text></g><g><rect x="1173.5" y="585" width="346.5" height="105" rx="12" fill="#fff" stroke="#8da7b1" stroke-width="2" stroke-dasharray="8 6"/><text x="1346.75" y="647" text-anchor="middle" font-size="20" font-weight="700" fill="#18313c">Logic Apps notifications</text></g></g></svg>