<svg xmlns="http://www.w3.org/2000/svg" viewBox="0 0 1600 900" role="img" aria-labelledby="title desc">
<title id="title">Metadata-Driven Multi-Source ADF Ingestion</title><desc id="desc">Configuration controls reusable orchestration while business data moves from each source to ADLS Gen2</desc>
<defs><marker id="arrow" viewBox="0 0 10 10" refX="9" refY="5" markerWidth="8" markerHeight="8" orient="auto"><path d="M0 0L10 5L0 10Z" fill="#315866"/></marker></defs>
<rect width="1600" height="900" fill="#ffffff"/><rect x="45" y="42" width="1510" height="816" rx="24" fill="#f7fafb" stroke="#b9cdd5" stroke-width="2"/>
<text x="90" y="105" font-family="Arial, Helvetica, sans-serif" font-size="40" font-weight="700" fill="#142a34">Metadata-Driven Multi-Source ADF Ingestion</text>
<text x="90" y="145" font-family="Arial, Helvetica, sans-serif" font-size="23" fill="#536d77">Configuration controls reusable orchestration while business data moves from each source to ADLS Gen2</text>
<g font-family="Arial, Helvetica, sans-serif"><g><rect x="80" y="210" width="280" height="118" rx="14" fill="#fff" stroke="#5c8797" stroke-width="2"/><circle cx="108" cy="238" r="16" fill="#087ea4"/><text x="108" y="245" text-anchor="middle" font-size="18" font-weight="700" fill="#fff">1</text><text x="220" y="258" text-anchor="middle" font-size="20" font-weight="700" fill="#18313c">SQL Sources</text><text x="220" y="287" text-anchor="middle" font-size="20" font-weight="500" fill="#18313c">Database input</text><line x1="360" y1="269" x2="610" y2="390" stroke="#315866" stroke-width="4" marker-end="url(#arrow)"/></g><g><rect x="80" y="365" width="280" height="118" rx="14" fill="#fff" stroke="#5c8797" stroke-width="2"/><circle cx="108" cy="393" r="16" fill="#087ea4"/><text x="108" y="400" text-anchor="middle" font-size="18" font-weight="700" fill="#fff">2</text><text x="220" y="413" text-anchor="middle" font-size="20" font-weight="700" fill="#18313c">REST or HTTP</text><text x="220" y="442" text-anchor="middle" font-size="20" font-weight="500" fill="#18313c">Endpoint input</text><line x1="360" y1="424" x2="610" y2="390" stroke="#315866" stroke-width="4" marker-end="url(#arrow)"/></g><g><rect x="80" y="520" width="280" height="118" rx="14" fill="#fff" stroke="#5c8797" stroke-width="2"/><circle cx="108" cy="548" r="16" fill="#087ea4"/><text x="108" y="555" text-anchor="middle" font-size="18" font-weight="700" fill="#fff">3</text><text x="220" y="568" text-anchor="middle" font-size="20" font-weight="700" fill="#18313c">File Sources</text><text x="220" y="597" text-anchor="middle" font-size="20" font-weight="500" fill="#18313c">Configured files</text><line x1="360" y1="579" x2="610" y2="390" stroke="#315866" stroke-width="4" marker-end="url(#arrow)"/></g>
  <g><rect x="610" y="300" width="330" height="180" rx="14" fill="#eef7fa" stroke="#5c8797" stroke-width="2"/><text x="775" y="360" text-anchor="middle" font-size="22" font-weight="700" fill="#18313c">Azure Data Factory</text><text x="775" y="391" text-anchor="middle" font-size="22" font-weight="500" fill="#18313c">Lookup - ForEach</text><text x="775" y="422" text-anchor="middle" font-size="22" font-weight="500" fill="#18313c">source-type routing</text></g>
  <line x1="940" y1="390" x2="1070" y2="390" stroke="#315866" stroke-width="4" marker-end="url(#arrow)"/>
  <g><rect x="1075" y="300" width="390" height="180" rx="14" fill="#edf8f4" stroke="#4f8b78" stroke-width="2"/><text x="1270" y="360" text-anchor="middle" font-size="22" font-weight="700" fill="#18313c">ADLS Gen2 Landing</text><text x="1270" y="391" text-anchor="middle" font-size="22" font-weight="500" fill="#18313c">Organised by source</text><text x="1270" y="422" text-anchor="middle" font-size="22" font-weight="500" fill="#18313c">and processing date</text></g>
  <g><rect x="610" y="180" width="330" height="82" rx="12" fill="#fff8e8" stroke="#9a7b38" stroke-width="2"/><text x="775" y="215" text-anchor="middle" font-size="19" font-weight="700" fill="#18313c">ADLS Metadata Configuration</text><text x="775" y="240" text-anchor="middle" font-size="19" font-weight="500" fill="#18313c">source, target and load rules</text></g>
  <line x1="775" y1="262" x2="775" y2="294" stroke="#9a7b38" stroke-width="4" stroke-dasharray="8 6" marker-end="url(#arrow)"/>
  <text x="965" y="233" font-size="19" font-weight="700" fill="#725a25">Control flow</text>
  <text x="430" y="340" font-size="19" font-weight="700" fill="#315866">Business data flow</text>
  <text x="80" y="700" font-size="24" font-weight="700" fill="#294854">Operational controls</text>
  <g><rect x="80" y="730" width="346" height="72" rx="12" fill="#fff" stroke="#8da7b1" stroke-width="2" stroke-dasharray="8 6"/><text x="253" y="773" text-anchor="middle" font-size="19" font-weight="700" fill="#18313c">Watermark processing</text></g><g><rect x="444" y="730" width="346" height="72" rx="12" fill="#fff" stroke="#8da7b1" stroke-width="2" stroke-dasharray="8 6"/><text x="617" y="773" text-anchor="middle" font-size="19" font-weight="700" fill="#18313c">Execution logging</text></g><g><rect x="808" y="730" width="346" height="72" rx="12" fill="#fff" stroke="#8da7b1" stroke-width="2" stroke-dasharray="8 6"/><text x="981" y="773" text-anchor="middle" font-size="19" font-weight="700" fill="#18313c">Retry handling</text></g><g><rect x="1172" y="730" width="346" height="72" rx="12" fill="#fff" stroke="#8da7b1" stroke-width="2" stroke-dasharray="8 6"/><text x="1345" y="773" text-anchor="middle" font-size="19" font-weight="700" fill="#18313c">Logic Apps notifications</text></g></g></svg>